<svg id="Layer_1" data-name="Layer 1" xmlns="http://www.w3.org/2000/svg" viewBox="0 0 362.49 107.36"><defs><style>.cls-1{fill:#fff;}.cls-2{fill:#00aeef;}.cls-3{fill:#414042;}</style></defs><title>ThinkCode</title><rect class="cls-1" width="362.49" height="107.36"/><path class="cls-2" d="M56.15,68.28H46.08l-.32-.09a11.39,11.39,0,0,1-8-8,10.15,10.15,0,0,1,2.8-10A2.45,2.45,0,0,1,44,53.68a5.29,5.29,0,0,0-1.53,5.25,6.56,6.56,0,0,0,4.29,4.45h9.39a2.45,2.45,0,0,1,0,4.9Z"/><path class="cls-3" d="M35.22,99.15C20,99.15,17.88,85.43,16.34,75.42c-1.59-10.34-2.85-14.88-8.28-14.88a3,3,0,0,1,0-6c11.14,0,12.84,11.07,14.2,20,1.78,11.6,3.54,18.64,13,18.64a3,3,0,1,1,0,6Z"/><path class="cls-3" d="M8.06,60.54a3,3,0,0,1,0-6c5.43,0,6.69-4.53,8.28-14.88,1.54-10,3.64-23.73,18.88-23.73a3,3,0,0,1,0,6c-9.42,0-11.18,7-13,18.64C20.9,49.47,19.2,60.54,8.06,60.54Z"/><path class="cls-2" d="M56.15,81.94a2.45,2.45,0,0,1-2.45-2.45v-44a2.45,2.45,0,0,1,4.9,0v44A2.45,2.45,0,0,1,56.15,81.94Z"/><path class="cls-2" d="M31.7,49.79a2.45,2.45,0,0,1-2.45-2.45,10.28,10.28,0,0,1,3.62-8,11,11,0,0,1,7-2.6,2.45,2.45,0,0,1,0,4.9,5.67,5.67,0,0,0-5.67,5.69A2.45,2.45,0,0,1,31.7,49.79Z"/><path class="cls-2" d="M33.93,44.15a2.45,2.45,0,0,1-1.73-.72c-3.43-3.43-3.64-8.67-.5-12.74,2.93-3.8,8.67-6,14.92-2.38a2.45,2.45,0,0,1-2.46,4.24c-3.92-2.28-7-.91-8.57,1.13-1.34,1.74-1.84,4.36.09,6.28a2.45,2.45,0,0,1-1.73,4.19Z"/><path class="cls-2" d="M39.94,78.11a11,11,0,0,1-7-2.6,10.28,10.28,0,0,1-3.62-8,2.45,2.45,0,1,1,4.9,0,5.67,5.67,0,0,0,5.67,5.69,2.45,2.45,0,1,1,0,4.9Z"/><path class="cls-2" d="M39.12,89a9.09,9.09,0,0,1-7.31-3.53,10.59,10.59,0,0,1,.51-14,2.45,2.45,0,0,1,3.47,3.47,5.73,5.73,0,0,0-.17,7.47c1.88,2.32,5,2.33,8.54,0a2.45,2.45,0,0,1,2.68,4.11A14.59,14.59,0,0,1,39.12,89Z"/><path class="cls-2" d="M70,65.37a2.45,2.45,0,0,1-1.73-4.19,5.29,5.29,0,0,0,1.53-5.25,6.56,6.56,0,0,0-4.29-4.45H56.15a2.45,2.45,0,0,1,0-4.9H66.22l.32.09a11.39,11.39,0,0,1,8,8,10.15,10.15,0,0,1-2.8,10A2.44,2.44,0,0,1,70,65.37Z"/><path class="cls-3" d="M104.24,60.32c-11.14,0-12.84-11.07-14.2-20-1.78-11.6-3.54-18.64-13-18.64a3,3,0,1,1,0-6c15.24,0,17.34,13.71,18.88,23.73,1.59,10.34,2.85,14.88,8.28,14.88a3,3,0,0,1,0,6Z"/><path class="cls-3" d="M77.08,98.92a3,3,0,0,1,0-6c9.42,0,11.18-7,13-18.64,1.37-8.89,3.06-20,14.2-20a3,3,0,0,1,0,6c-5.43,0-6.69,4.53-8.28,14.88C94.43,85.21,92.32,98.92,77.08,98.92Z"/><path class="cls-2" d="M56.15,81.78a2.45,2.45,0,0,1-2.45-2.45v-44a2.45,2.45,0,0,1,4.9,0v44A2.45,2.45,0,0,1,56.15,81.78Z"/><path class="cls-2" d="M72.48,78.13a2.45,2.45,0,1,1,0-4.9,5.67,5.67,0,0,0,5.67-5.69,2.45,2.45,0,0,1,4.9,0,10.28,10.28,0,0,1-3.62,8A11,11,0,0,1,72.48,78.13Z"/><path class="cls-2" d="M72.17,88.46a12.74,12.74,0,0,1-6.49-1.91,2.45,2.45,0,0,1,2.49-4.22c3.92,2.32,7,1,8.55-1a4.78,4.78,0,0,0-.08-6.4,2.45,2.45,0,0,1,3.47-3.47,9.65,9.65,0,0,1,.49,12.87A10.66,10.66,0,0,1,72.17,88.46Z"/><path class="cls-2" d="M80.49,49.8A2.45,2.45,0,0,1,78,47.35a5.67,5.67,0,0,0-5.67-5.69,2.45,2.45,0,0,1,0-4.9,11,11,0,0,1,7,2.6,10.28,10.28,0,0,1,3.62,8A2.45,2.45,0,0,1,80.49,49.8Z"/><path class="cls-2" d="M78.25,44.16A2.45,2.45,0,0,1,76.52,40c2-2,1.48-4.93,0-6.81-.75-.93-3.57-3.73-8.35-.66a2.45,2.45,0,0,1-2.65-4.12c4.41-2.83,10.7-3.41,14.83,1.71A10,10,0,0,1,80,43.44,2.44,2.44,0,0,1,78.25,44.16Z"/><path class="cls-2" d="M137.82,45.8V71.2H130.1V45.8h-9v-6.6h25.8v6.6Z"/><path class="cls-2" d="M164,71.2V59a11.6,11.6,0,0,0-.14-1.81,4.3,4.3,0,0,0-.52-1.51,2.93,2.93,0,0,0-1-1,3.1,3.1,0,0,0-1.63-.38,3.51,3.51,0,0,0-3,1.38,5.5,5.5,0,0,0-1,3.41V71.2h-7.41V37h7.41v14.5h.09a7.06,7.06,0,0,1,2.44-2.42,7.35,7.35,0,0,1,4-1.06,8.29,8.29,0,0,1,3.86.81,7.41,7.41,0,0,1,2.53,2.1,8.29,8.29,0,0,1,1.4,3,13.4,13.4,0,0,1,.43,3.34V71.2Z"/><path class="cls-2" d="M185.09,41.51a3.83,3.83,0,0,1-.34,1.6,4.05,4.05,0,0,1-2.26,2.15,4.4,4.4,0,0,1-1.65.32,4.15,4.15,0,0,1-3-1.2,3.88,3.88,0,0,1-1.22-2.87,4,4,0,0,1,.32-1.56,3.69,3.69,0,0,1,.9-1.29,4.87,4.87,0,0,1,1.36-.88,4.1,4.1,0,0,1,1.67-.34,4.42,4.42,0,0,1,1.65.32,4.05,4.05,0,0,1,2.26,2.15A3.84,3.84,0,0,1,185.09,41.51Zm-8,29.69V48.7h7.41V71.2Z"/><path class="cls-2" d="M205.19,71.2V58.91A10,10,0,0,0,205,57.1a5,5,0,0,0-.52-1.51,2.72,2.72,0,0,0-1-1,3.24,3.24,0,0,0-1.65-.38,3.76,3.76,0,0,0-1.74.38,3.52,3.52,0,0,0-1.24,1.06,4.79,4.79,0,0,0-.75,1.56,6.7,6.7,0,0,0-.25,1.83V71.2h-7.46V48.7h7.18v3.12h.09a7.42,7.42,0,0,1,1.06-1.42,6.39,6.39,0,0,1,1.54-1.2,9.63,9.63,0,0,1,1.92-.81,7.59,7.59,0,0,1,2.21-.32,8.32,8.32,0,0,1,3.84.81,7.35,7.35,0,0,1,2.55,2.1,8.29,8.29,0,0,1,1.4,3,13.4,13.4,0,0,1,.43,3.34V71.2Z"/><path class="cls-2" d="M242.43,71.2h-9.17l-7.37-10.8h-.14V71.2H218.3V37h7.46V57.82h.14l7.18-9.13h9l-8.68,10.17Z"/><path class="cls-3" d="M268.45,70.63a17.15,17.15,0,0,1-7.18,1.42,18.74,18.74,0,0,1-6.85-1.22A15.8,15.8,0,0,1,245.36,62a18.74,18.74,0,0,1,0-13.83,15.47,15.47,0,0,1,3.68-5.31,16.31,16.31,0,0,1,5.51-3.37,19.76,19.76,0,0,1,13.49,0,12.75,12.75,0,0,1,5.31,3.5l-5.24,5.24a6.48,6.48,0,0,0-2.85-2.21,9.45,9.45,0,0,0-3.62-.72,9.15,9.15,0,0,0-3.73.75A8.74,8.74,0,0,0,255,48.15a9.37,9.37,0,0,0-1.9,3.1,10.92,10.92,0,0,0-.68,3.91,11.24,11.24,0,0,0,.68,4A9.27,9.27,0,0,0,255,62.23a8.43,8.43,0,0,0,2.87,2,9.11,9.11,0,0,0,3.66.72,8.5,8.5,0,0,0,4-.9,7.79,7.79,0,0,0,2.76-2.35l5.38,5.06A15.24,15.24,0,0,1,268.45,70.63Z"/><path class="cls-3" d="M299.9,59.86a12.17,12.17,0,0,1-1,5,11.2,11.2,0,0,1-2.71,3.8,12.41,12.41,0,0,1-4,2.42,14,14,0,0,1-9.65,0,12.06,12.06,0,0,1-4-2.42,11.35,11.35,0,0,1-2.69-3.8,12.17,12.17,0,0,1-1-5,12,12,0,0,1,1-5,11.17,11.17,0,0,1,2.69-3.75,11.69,11.69,0,0,1,4-2.35,14.71,14.71,0,0,1,9.65,0,12,12,0,0,1,4,2.35,11,11,0,0,1,2.71,3.75A12,12,0,0,1,299.9,59.86Zm-7.14,0a6.42,6.42,0,0,0-.36-2.12,5.63,5.63,0,0,0-1-1.83,5.31,5.31,0,0,0-1.67-1.29,5.59,5.59,0,0,0-4.61,0,5,5,0,0,0-1.65,1.29,5.51,5.51,0,0,0-1,1.83,6.83,6.83,0,0,0,0,4.25,5.79,5.79,0,0,0,1,1.88,5,5,0,0,0,1.67,1.33,5.59,5.59,0,0,0,4.61,0,5,5,0,0,0,1.67-1.33,5.79,5.79,0,0,0,1-1.87A6.79,6.79,0,0,0,292.76,59.86Z"/><path class="cls-3" d="M321.64,71.2V68.26h-.09a7,7,0,0,1-3.1,2.64,10.09,10.09,0,0,1-4.27.93,10,10,0,0,1-4.52-1,10.37,10.37,0,0,1-3.37-2.64,11.6,11.6,0,0,1-2.1-3.82,14.18,14.18,0,0,1-.72-4.52,13.61,13.61,0,0,1,.75-4.5,11.71,11.71,0,0,1,2.12-3.77,9.9,9.9,0,0,1,7.75-3.52,8.58,8.58,0,0,1,4.2.95A9.33,9.33,0,0,1,321,51.09H321V37h7.41V71.2Zm-.27-11.3a6.09,6.09,0,0,0-.38-2.12,6,6,0,0,0-1.08-1.85,5.41,5.41,0,0,0-1.69-1.31,5,5,0,0,0-2.26-.5,5.09,5.09,0,0,0-2.3.5,5.19,5.19,0,0,0-2.69,3.12,6.82,6.82,0,0,0-.34,2.12,7,7,0,0,0,.34,2.15,5.53,5.53,0,0,0,1,1.88,5.13,5.13,0,0,0,1.67,1.31,5.08,5.08,0,0,0,2.3.5,5,5,0,0,0,2.26-.5,5.41,5.41,0,0,0,1.69-1.31A6,6,0,0,0,321,62,6.08,6.08,0,0,0,321.37,59.9Z"/><path class="cls-3" d="M356.66,60.22v.9a8,8,0,0,1,0,.86H340.3a3.92,3.92,0,0,0,.56,1.72A4.87,4.87,0,0,0,342.08,65a6,6,0,0,0,3.59,1.2,6.23,6.23,0,0,0,3-.66,5.88,5.88,0,0,0,2-1.69l5.15,3.25a10.43,10.43,0,0,1-4.18,3.55,13.84,13.84,0,0,1-6,1.24,14.41,14.41,0,0,1-4.79-.79,11.62,11.62,0,0,1-4-2.3,10.68,10.68,0,0,1-2.67-3.73,12.49,12.49,0,0,1-1-5.06,12.66,12.66,0,0,1,.95-5,11.28,11.28,0,0,1,2.58-3.79,11.48,11.48,0,0,1,3.84-2.42,13.15,13.15,0,0,1,4.79-.86,12.14,12.14,0,0,1,4.56.84,9.94,9.94,0,0,1,3.57,2.42,11.17,11.17,0,0,1,2.33,3.84A14.8,14.8,0,0,1,356.66,60.22Zm-6.82-2.85a4.44,4.44,0,0,0-1.11-3,4.18,4.18,0,0,0-3.32-1.26,5.6,5.6,0,0,0-2,.34,5.16,5.16,0,0,0-1.58.93,4.57,4.57,0,0,0-1.08,1.38,4,4,0,0,0-.45,1.65Z"/></svg>