<svg id="Layer_1" data-name="Layer 1" xmlns="http://www.w3.org/2000/svg" viewBox="0 0 240.07 36.34"><defs><style>.cls-1{fill:#fff;}.cls-2{fill:#00aeef;}.cls-3{fill:#414042;}</style></defs><title>ThinkCode</title><rect class="cls-1" width="240.07" height="36.34"/><path class="cls-2" d="M18.89,10.09V35.48H11.16V10.09h-9V3.49h25.8v6.6Z"/><path class="cls-2" d="M45.05,35.48V23.28a11.6,11.6,0,0,0-.14-1.81A4.3,4.3,0,0,0,44.4,20a2.93,2.93,0,0,0-1-1,3.1,3.1,0,0,0-1.63-.38,3.51,3.51,0,0,0-3,1.38,5.5,5.5,0,0,0-1,3.41V35.48H30.32V1.32h7.41v14.5h.09a7.06,7.06,0,0,1,2.44-2.42,7.35,7.35,0,0,1,4-1.06,8.29,8.29,0,0,1,3.86.81,7.41,7.41,0,0,1,2.53,2.1,8.29,8.29,0,0,1,1.4,3,13.4,13.4,0,0,1,.43,3.34V35.48Z"/><path class="cls-2" d="M66.15,5.79a3.83,3.83,0,0,1-.34,1.6,4.14,4.14,0,0,1-.9,1.29,4.18,4.18,0,0,1-1.36.86,4.4,4.4,0,0,1-1.65.32,4.15,4.15,0,0,1-3-1.2,3.88,3.88,0,0,1-1.22-2.87A4,4,0,0,1,58,4.23a3.69,3.69,0,0,1,.9-1.29,4.87,4.87,0,0,1,1.36-.88,4.1,4.1,0,0,1,1.67-.34A4.42,4.42,0,0,1,63.55,2a4.05,4.05,0,0,1,2.26,2.15A3.84,3.84,0,0,1,66.15,5.79Zm-8,29.69V13h7.41v22.5Z"/><path class="cls-2" d="M86.26,35.48V23.19a10,10,0,0,0-.16-1.81,5,5,0,0,0-.52-1.51,2.72,2.72,0,0,0-1-1,3.24,3.24,0,0,0-1.65-.38,3.76,3.76,0,0,0-1.74.38,3.52,3.52,0,0,0-1.24,1.06,4.79,4.79,0,0,0-.75,1.56,6.7,6.7,0,0,0-.25,1.83v12.2H71.48V13h7.18V16.1h.09a7.42,7.42,0,0,1,1.06-1.42,6.39,6.39,0,0,1,1.54-1.2,9.63,9.63,0,0,1,1.92-.81,7.59,7.59,0,0,1,2.21-.32,8.32,8.32,0,0,1,3.84.81,7.35,7.35,0,0,1,2.55,2.1,8.29,8.29,0,0,1,1.4,3,13.4,13.4,0,0,1,.43,3.34V35.48Z"/><path class="cls-2" d="M123.49,35.48h-9.17L107,24.68h-.14v10.8H99.36V1.32h7.46V22.11H107L114.14,13h9l-8.68,10.17Z"/><path class="cls-3" d="M149.52,34.92a17.15,17.15,0,0,1-7.18,1.42,18.74,18.74,0,0,1-6.85-1.22,15.8,15.8,0,0,1-9.06-8.81,17.54,17.54,0,0,1-1.31-6.87,17.54,17.54,0,0,1,1.33-7,15.47,15.47,0,0,1,3.68-5.31,16.31,16.31,0,0,1,5.51-3.37,19.76,19.76,0,0,1,13.49,0,12.75,12.75,0,0,1,5.31,3.5l-5.24,5.24a6.48,6.48,0,0,0-2.85-2.21,9.45,9.45,0,0,0-3.62-.72,9.15,9.15,0,0,0-3.73.75,8.74,8.74,0,0,0-2.91,2.06,9.37,9.37,0,0,0-1.9,3.1,10.92,10.92,0,0,0-.68,3.91,11.24,11.24,0,0,0,.68,4,9.27,9.27,0,0,0,1.88,3.09,8.43,8.43,0,0,0,2.87,2,9.11,9.11,0,0,0,3.66.72,8.5,8.5,0,0,0,4-.9A7.79,7.79,0,0,0,149.38,26l5.38,5.06A15.24,15.24,0,0,1,149.52,34.92Z"/><path class="cls-3" d="M181,24.14a12.17,12.17,0,0,1-1,5,11.2,11.2,0,0,1-2.71,3.8,12.41,12.41,0,0,1-4,2.42,14,14,0,0,1-9.65,0,12.06,12.06,0,0,1-4-2.42,11.35,11.35,0,0,1-2.69-3.8,12.17,12.17,0,0,1-1-5,12,12,0,0,1,1-5,11.17,11.17,0,0,1,2.69-3.75,11.69,11.69,0,0,1,4-2.35,14.71,14.71,0,0,1,9.65,0,12,12,0,0,1,4,2.35A11,11,0,0,1,180,19.17,12,12,0,0,1,181,24.14Zm-7.14,0a6.42,6.42,0,0,0-.36-2.12,5.63,5.63,0,0,0-1-1.83,5.31,5.31,0,0,0-1.67-1.29,5.59,5.59,0,0,0-4.61,0,5,5,0,0,0-1.65,1.29,5.51,5.51,0,0,0-1,1.83,6.83,6.83,0,0,0,0,4.25,5.79,5.79,0,0,0,1,1.88,5,5,0,0,0,1.67,1.33,5.59,5.59,0,0,0,4.61,0,5,5,0,0,0,1.67-1.33,5.79,5.79,0,0,0,1-1.87A6.79,6.79,0,0,0,173.83,24.14Z"/><path class="cls-3" d="M202.7,35.48V32.54h-.09a7,7,0,0,1-3.1,2.64,10.09,10.09,0,0,1-4.27.93,10,10,0,0,1-4.52-1,10.37,10.37,0,0,1-3.37-2.64,11.6,11.6,0,0,1-2.1-3.82,14.18,14.18,0,0,1-.72-4.52,13.61,13.61,0,0,1,.75-4.5,11.71,11.71,0,0,1,2.12-3.77,9.9,9.9,0,0,1,7.75-3.52,8.58,8.58,0,0,1,4.2.95A9.33,9.33,0,0,1,202,15.37h.09V1.32h7.41V35.48Zm-.27-11.3a6.09,6.09,0,0,0-.38-2.12A6,6,0,0,0,201,20.21a5.41,5.41,0,0,0-1.69-1.31,5,5,0,0,0-2.26-.5,5.09,5.09,0,0,0-2.3.5A5.19,5.19,0,0,0,192,22a6.82,6.82,0,0,0-.34,2.12,7,7,0,0,0,.34,2.15,5.53,5.53,0,0,0,1,1.88,5.13,5.13,0,0,0,1.67,1.31,5.08,5.08,0,0,0,2.3.5,5,5,0,0,0,2.26-.5A5.41,5.41,0,0,0,201,28.16,6,6,0,0,0,202,26.31,6.08,6.08,0,0,0,202.43,24.18Z"/><path class="cls-3" d="M237.72,24.5v.9a8,8,0,0,1,0,.86H221.36a3.92,3.92,0,0,0,.56,1.72,4.87,4.87,0,0,0,1.22,1.33,6,6,0,0,0,3.59,1.2,6.23,6.23,0,0,0,3-.66,5.88,5.88,0,0,0,2-1.69l5.15,3.25A10.43,10.43,0,0,1,232.68,35a13.84,13.84,0,0,1-6,1.24,14.41,14.41,0,0,1-4.79-.79,11.62,11.62,0,0,1-4-2.3,10.68,10.68,0,0,1-2.67-3.73,12.49,12.49,0,0,1-1-5.06,12.66,12.66,0,0,1,.95-5,11.28,11.28,0,0,1,2.58-3.79,11.48,11.48,0,0,1,3.84-2.42,13.15,13.15,0,0,1,4.79-.86,12.14,12.14,0,0,1,4.56.84,9.94,9.94,0,0,1,3.57,2.42,11.17,11.17,0,0,1,2.33,3.84A14.8,14.8,0,0,1,237.72,24.5Zm-6.82-2.85a4.44,4.44,0,0,0-1.11-3,4.18,4.18,0,0,0-3.32-1.26,5.6,5.6,0,0,0-2,.34,5.16,5.16,0,0,0-1.58.93A4.57,4.57,0,0,0,221.82,20a4,4,0,0,0-.45,1.65Z"/></svg>