<svg id="Layer_1" data-name="Layer 1" xmlns="http://www.w3.org/2000/svg" viewBox="0 0 187.5 153.1"><defs><style>.cls-1{fill:#fff;}.cls-2{fill:#00aeef;}.cls-3{fill:#414042;}</style></defs><title>ThinkCode</title><rect class="cls-1" width="187.5" height="153.1"/><path class="cls-2" d="M93.75,96.46H75.27l-.58-.16A20.91,20.91,0,0,1,60,81.61a18.63,18.63,0,0,1,5.14-18.3,4.5,4.5,0,0,1,6.36,6.36,9.71,9.71,0,0,0-2.8,9.63,12,12,0,0,0,7.86,8.16H93.75a4.5,4.5,0,0,1,0,9Z"/><path class="cls-3" d="M55.34,153.1c-28,0-31.83-25.17-34.65-43.54-2.91-19-5.23-27.3-15.19-27.3a5.5,5.5,0,0,1,0-11c20.44,0,23.56,20.31,26.06,36.63,3.27,21.29,6.5,34.21,23.78,34.21a5.5,5.5,0,0,1,0,11Z"/><path class="cls-3" d="M5.5,82.26a5.5,5.5,0,0,1,0-11c10,0,12.28-8.32,15.19-27.3C23.51,25.58,27.37.41,55.34.41a5.5,5.5,0,1,1,0,11c-17.28,0-20.51,12.92-23.78,34.21C29.06,61.94,25.94,82.26,5.5,82.26Z"/><path class="cls-2" d="M93.75,121.52a4.5,4.5,0,0,1-4.5-4.5V36.36a4.5,4.5,0,0,1,9,0V117A4.5,4.5,0,0,1,93.75,121.52Z"/><path class="cls-2" d="M48.88,62.52a4.5,4.5,0,0,1-4.5-4.5A18.87,18.87,0,0,1,51,43.35a20.09,20.09,0,0,1,12.76-4.77,4.5,4.5,0,0,1,0,9c-3.4,0-10.41,2.55-10.41,10.44A4.5,4.5,0,0,1,48.88,62.52Z"/><path class="cls-2" d="M53,52.17a4.49,4.49,0,0,1-3.18-1.32c-6.3-6.3-6.68-15.91-.93-23.38,5.37-7,15.92-11,27.38-4.37a4.5,4.5,0,1,1-4.52,7.78C64.53,26.7,58.89,29.21,56,33c-2.46,3.2-3.37,8,.16,11.53A4.5,4.5,0,0,1,53,52.17Z"/><path class="cls-2" d="M64,114.5a20.09,20.09,0,0,1-12.76-4.77,18.87,18.87,0,0,1-6.65-14.67,4.5,4.5,0,0,1,9,0c0,7.89,7,10.44,10.41,10.44a4.5,4.5,0,0,1,0,9Z"/><path class="cls-2" d="M62.5,134.43A16.69,16.69,0,0,1,49.08,128c-6.23-7.68-5.82-19,.93-25.74a4.5,4.5,0,0,1,6.36,6.36c-3.89,3.89-3.19,10.14-.3,13.7,3.46,4.26,9.17,4.27,15.67,0a4.5,4.5,0,0,1,4.92,7.54A26.77,26.77,0,0,1,62.5,134.43Z"/><path class="cls-2" d="M119.22,91.11A4.5,4.5,0,0,1,116,83.43a9.71,9.71,0,0,0,2.8-9.63A12,12,0,0,0,111,65.64H93.75a4.5,4.5,0,0,1,0-9h18.48l.58.16a20.91,20.91,0,0,1,14.73,14.69,18.63,18.63,0,0,1-5.14,18.3A4.49,4.49,0,0,1,119.22,91.11Z"/><path class="cls-3" d="M182,81.84c-20.44,0-23.56-20.31-26.06-36.63C152.67,23.92,149.44,11,132.16,11a5.5,5.5,0,1,1,0-11c28,0,31.83,25.17,34.65,43.54,2.91,19,5.23,27.3,15.19,27.3a5.5,5.5,0,0,1,0,11Z"/><path class="cls-3" d="M132.16,152.68a5.5,5.5,0,1,1,0-11c17.28,0,20.51-12.92,23.78-34.21,2.5-16.32,5.62-36.63,26.06-36.63a5.5,5.5,0,0,1,0,11c-10,0-12.28,8.32-15.19,27.3C164,127.52,160.13,152.68,132.16,152.68Z"/><path class="cls-2" d="M93.75,121.24a4.5,4.5,0,0,1-4.5-4.5V36.08a4.5,4.5,0,0,1,9,0v80.66A4.5,4.5,0,0,1,93.75,121.24Z"/><path class="cls-2" d="M123.72,114.52a4.5,4.5,0,0,1,0-9c3.39,0,10.4-2.55,10.4-10.44a4.5,4.5,0,0,1,9,0,18.87,18.87,0,0,1-6.65,14.67A20.09,20.09,0,0,1,123.72,114.52Z"/><path class="cls-2" d="M123.15,133.48a23.37,23.37,0,0,1-11.92-3.5,4.5,4.5,0,1,1,4.57-7.75c7.2,4.25,12.83,1.81,15.69-1.88,2.44-3.15,3.43-8.16-.15-11.74a4.5,4.5,0,1,1,6.36-6.36c6.27,6.27,6.65,16.2.9,23.61A19.55,19.55,0,0,1,123.15,133.48Z"/><path class="cls-2" d="M138.41,62.54a4.5,4.5,0,0,1-4.5-4.5c0-7.89-7-10.44-10.41-10.44a4.5,4.5,0,1,1,0-9,20.09,20.09,0,0,1,12.76,4.77A18.87,18.87,0,0,1,142.91,58,4.5,4.5,0,0,1,138.41,62.54Z"/><path class="cls-2" d="M134.31,52.19a4.5,4.5,0,0,1-3.18-7.68c3.64-3.64,2.72-9-.06-12.5-1.38-1.71-6.56-6.85-15.33-1.21a4.5,4.5,0,0,1-4.87-7.57C119,18,130.5,17,138.07,26.36c6.09,7.55,5.84,18.09-.58,24.51A4.49,4.49,0,0,1,134.31,52.19Z"/></svg>