<svg id="Layer_1" data-name="Layer 1" xmlns="http://www.w3.org/2000/svg" viewBox="0 0 595.28 841.89"><defs><style>.cls-1,.cls-3{fill:#00aeef;}.cls-2,.cls-6{fill:#414042;}.cls-3{font-size:45.19px;font-family:AvenirNext-Bold, Avenir Next;font-weight:700;}.cls-4{letter-spacing:-0.02em;}.cls-5{letter-spacing:0em;}.cls-6{letter-spacing:-0.01em;}</style></defs><title>ThinkCode</title><path class="cls-1" d="M297.64,419.53H279.16l-.58-.16a20.91,20.91,0,0,1-14.73-14.69,18.63,18.63,0,0,1,5.14-18.3,4.5,4.5,0,0,1,6.36,6.36,9.71,9.71,0,0,0-2.8,9.63,12,12,0,0,0,7.86,8.16h17.23a4.5,4.5,0,0,1,0,9Z"/><path class="cls-2" d="M259.23,476.17c-28,0-31.83-25.17-34.65-43.54-2.91-19-5.23-27.3-15.19-27.3a5.5,5.5,0,0,1,0-11c20.44,0,23.56,20.31,26.06,36.63,3.27,21.29,6.5,34.21,23.78,34.21a5.5,5.5,0,0,1,0,11Z"/><path class="cls-2" d="M209.39,405.33a5.5,5.5,0,0,1,0-11c10,0,12.28-8.32,15.19-27.3,2.82-18.37,6.68-43.54,34.65-43.54a5.5,5.5,0,0,1,0,11c-17.28,0-20.51,12.92-23.78,34.21C232.95,385,229.83,405.33,209.39,405.33Z"/><path class="cls-1" d="M297.64,444.59a4.5,4.5,0,0,1-4.5-4.5V359.43a4.5,4.5,0,0,1,9,0v80.66A4.5,4.5,0,0,1,297.64,444.59Z"/><path class="cls-1" d="M252.77,385.59a4.5,4.5,0,0,1-4.5-4.5,18.87,18.87,0,0,1,6.65-14.67,20.09,20.09,0,0,1,12.76-4.77,4.5,4.5,0,0,1,0,9c-3.4,0-10.41,2.55-10.41,10.44A4.5,4.5,0,0,1,252.77,385.59Z"/><path class="cls-1" d="M256.87,375.24a4.49,4.49,0,0,1-3.18-1.32c-6.3-6.3-6.68-15.91-.93-23.38,5.37-7,15.92-11,27.38-4.37a4.5,4.5,0,0,1-4.52,7.78c-7.19-4.18-12.84-1.67-15.72,2.08-2.46,3.2-3.37,8,.16,11.53a4.5,4.5,0,0,1-3.18,7.68Z"/><path class="cls-1" d="M267.89,437.57a20.09,20.09,0,0,1-12.76-4.77,18.87,18.87,0,0,1-6.65-14.67,4.5,4.5,0,0,1,9,0c0,7.89,7,10.44,10.41,10.44a4.5,4.5,0,0,1,0,9Z"/><path class="cls-1" d="M266.39,457.5A16.69,16.69,0,0,1,253,451c-6.23-7.68-5.82-19,.93-25.74a4.5,4.5,0,1,1,6.36,6.36c-3.89,3.89-3.19,10.14-.3,13.7,3.46,4.26,9.17,4.27,15.67,0a4.5,4.5,0,0,1,4.92,7.54A26.77,26.77,0,0,1,266.39,457.5Z"/><path class="cls-1" d="M323.11,414.18a4.5,4.5,0,0,1-3.18-7.68,9.71,9.71,0,0,0,2.8-9.63,12,12,0,0,0-7.87-8.16H297.64a4.5,4.5,0,0,1,0-9h18.48l.58.16a20.91,20.91,0,0,1,14.73,14.69,18.63,18.63,0,0,1-5.14,18.3A4.49,4.49,0,0,1,323.11,414.18Z"/><path class="cls-2" d="M385.89,404.91c-20.44,0-23.56-20.31-26.06-36.63-3.27-21.29-6.5-34.21-23.78-34.21a5.5,5.5,0,1,1,0-11c28,0,31.83,25.17,34.65,43.54,2.91,19,5.23,27.3,15.19,27.3a5.5,5.5,0,0,1,0,11Z"/><path class="cls-2" d="M336,475.75a5.5,5.5,0,1,1,0-11c17.28,0,20.51-12.92,23.78-34.21,2.5-16.32,5.62-36.63,26.06-36.63a5.5,5.5,0,0,1,0,11c-10,0-12.28,8.32-15.19,27.3C367.88,450.59,364,475.75,336,475.75Z"/><path class="cls-1" d="M297.64,444.3a4.5,4.5,0,0,1-4.5-4.5V359.15a4.5,4.5,0,0,1,9,0V439.8A4.5,4.5,0,0,1,297.64,444.3Z"/><path class="cls-1" d="M327.6,437.59a4.5,4.5,0,1,1,0-9c3.39,0,10.4-2.55,10.4-10.44a4.5,4.5,0,0,1,9,0,18.87,18.87,0,0,1-6.65,14.67A20.09,20.09,0,0,1,327.6,437.59Z"/><path class="cls-1" d="M327,456.55a23.37,23.37,0,0,1-11.92-3.5,4.5,4.5,0,0,1,4.57-7.75c7.2,4.25,12.83,1.81,15.69-1.88,2.44-3.15,3.43-8.16-.15-11.74a4.5,4.5,0,0,1,6.36-6.36c6.27,6.27,6.65,16.2.9,23.61A19.55,19.55,0,0,1,327,456.55Z"/><path class="cls-1" d="M342.29,385.61a4.5,4.5,0,0,1-4.5-4.5c0-7.89-7-10.44-10.41-10.44a4.5,4.5,0,1,1,0-9,20.09,20.09,0,0,1,12.76,4.77,18.87,18.87,0,0,1,6.65,14.67A4.5,4.5,0,0,1,342.29,385.61Z"/><path class="cls-1" d="M338.2,375.26a4.5,4.5,0,0,1-3.18-7.68c3.64-3.64,2.72-9-.06-12.5-1.38-1.71-6.56-6.85-15.33-1.21a4.5,4.5,0,0,1-4.87-7.57c8.09-5.2,19.64-6.25,27.21,3.13,6.09,7.55,5.84,18.09-.58,24.51A4.49,4.49,0,0,1,338.2,375.26Z"/><text class="cls-3" transform="translate(182.2 543.1)"><tspan class="cls-4">T</tspan><tspan class="cls-5" x="25.44" y="0">hink</tspan><tspan class="cls-6" x="121.41" y="0">C</tspan><tspan class="cls-2" x="152.32" y="0">ode</tspan></text></svg>