<svg id="Layer_1" data-name="Layer 1" xmlns="http://www.w3.org/2000/svg" viewBox="0 0 242.12 228.73"><defs><style>.cls-1{fill:#fff;}.cls-2{fill:#00aeef;}.cls-3{fill:#414042;}</style></defs><title>ThinkCode</title><rect class="cls-1" width="242.12" height="228.73"/><path class="cls-2" d="M121.06,103H102.58l-.58-.16A20.91,20.91,0,0,1,87.27,88.11a18.63,18.63,0,0,1,5.14-18.3,4.5,4.5,0,0,1,6.36,6.36A9.71,9.71,0,0,0,96,85.8,12,12,0,0,0,103.83,94h17.23a4.5,4.5,0,0,1,0,9Z"/><path class="cls-3" d="M82.65,159.6c-28,0-31.83-25.17-34.65-43.54-2.91-19-5.23-27.3-15.19-27.3a5.5,5.5,0,1,1,0-11c20.44,0,23.56,20.31,26.06,36.63,3.27,21.29,6.5,34.21,23.78,34.21a5.5,5.5,0,0,1,0,11Z"/><path class="cls-3" d="M32.81,88.76a5.5,5.5,0,1,1,0-11c10,0,12.28-8.32,15.19-27.3C50.82,32.08,54.68,6.92,82.65,6.92a5.5,5.5,0,0,1,0,11c-17.28,0-20.51,12.92-23.78,34.21C56.37,68.45,53.25,88.76,32.81,88.76Z"/><path class="cls-2" d="M121.06,128a4.5,4.5,0,0,1-4.5-4.5V42.86a4.5,4.5,0,0,1,9,0v80.66A4.5,4.5,0,0,1,121.06,128Z"/><path class="cls-2" d="M76.19,69a4.5,4.5,0,0,1-4.5-4.5,18.87,18.87,0,0,1,6.65-14.67,20.09,20.09,0,0,1,12.76-4.77,4.5,4.5,0,0,1,0,9c-3.4,0-10.41,2.55-10.41,10.44A4.5,4.5,0,0,1,76.19,69Z"/><path class="cls-2" d="M80.29,58.67a4.49,4.49,0,0,1-3.18-1.32c-6.3-6.3-6.68-15.91-.93-23.38,5.37-7,15.92-11,27.38-4.37A4.5,4.5,0,1,1,99,37.38c-7.19-4.18-12.84-1.67-15.72,2.08-2.46,3.2-3.37,8,.16,11.53a4.5,4.5,0,0,1-3.18,7.68Z"/><path class="cls-2" d="M91.31,121a20.09,20.09,0,0,1-12.76-4.77,18.87,18.87,0,0,1-6.65-14.67,4.5,4.5,0,0,1,9,0c0,7.89,7,10.44,10.41,10.44a4.5,4.5,0,0,1,0,9Z"/><path class="cls-2" d="M89.81,140.93a16.69,16.69,0,0,1-13.42-6.47c-6.23-7.68-5.82-19,.93-25.74a4.5,4.5,0,1,1,6.36,6.36c-3.89,3.89-3.19,10.14-.3,13.7,3.46,4.26,9.17,4.27,15.67,0a4.5,4.5,0,0,1,4.92,7.54A26.77,26.77,0,0,1,89.81,140.93Z"/><path class="cls-2" d="M146.53,97.61a4.5,4.5,0,0,1-3.18-7.68,9.71,9.71,0,0,0,2.8-9.63,12,12,0,0,0-7.87-8.16H121.06a4.5,4.5,0,0,1,0-9h18.48l.58.16A20.91,20.91,0,0,1,154.85,78a18.63,18.63,0,0,1-5.14,18.3A4.49,4.49,0,0,1,146.53,97.61Z"/><path class="cls-3" d="M209.31,88.34c-20.44,0-23.56-20.31-26.06-36.63C180,30.43,176.75,17.5,159.47,17.5a5.5,5.5,0,0,1,0-11c28,0,31.83,25.17,34.65,43.54,2.91,19,5.23,27.3,15.19,27.3a5.5,5.5,0,0,1,0,11Z"/><path class="cls-3" d="M159.47,159.19a5.5,5.5,0,1,1,0-11c17.28,0,20.51-12.92,23.78-34.21,2.5-16.32,5.62-36.63,26.06-36.63a5.5,5.5,0,0,1,0,11c-10,0-12.28,8.32-15.19,27.3C191.3,134,187.43,159.19,159.47,159.19Z"/><path class="cls-2" d="M121.06,127.74a4.5,4.5,0,0,1-4.5-4.5V42.58a4.5,4.5,0,0,1,9,0v80.66A4.5,4.5,0,0,1,121.06,127.74Z"/><path class="cls-2" d="M151,121a4.5,4.5,0,0,1,0-9c3.39,0,10.4-2.55,10.4-10.44a4.5,4.5,0,1,1,9,0,18.87,18.87,0,0,1-6.65,14.67A20.09,20.09,0,0,1,151,121Z"/><path class="cls-2" d="M150.45,140a23.37,23.37,0,0,1-11.92-3.5,4.5,4.5,0,1,1,4.57-7.75c7.2,4.25,12.83,1.81,15.69-1.88,2.44-3.15,3.43-8.16-.15-11.74a4.5,4.5,0,1,1,6.36-6.36c6.27,6.27,6.65,16.2.9,23.61A19.55,19.55,0,0,1,150.45,140Z"/><path class="cls-2" d="M165.71,69a4.5,4.5,0,0,1-4.5-4.5c0-7.89-7-10.44-10.41-10.44a4.5,4.5,0,0,1,0-9,20.09,20.09,0,0,1,12.76,4.77,18.87,18.87,0,0,1,6.65,14.67A4.5,4.5,0,0,1,165.71,69Z"/><path class="cls-2" d="M161.62,58.69A4.5,4.5,0,0,1,158.43,51c3.64-3.64,2.72-9-.06-12.5C157,36.8,151.81,31.66,143,37.3a4.5,4.5,0,0,1-4.87-7.57c8.09-5.2,19.64-6.25,27.21,3.13,6.09,7.55,5.84,18.09-.58,24.51A4.49,4.49,0,0,1,161.62,58.69Z"/><path class="cls-2" d="M20,201.14v25.39H12.3V201.14h-9v-6.6h25.8v6.6Z"/><path class="cls-2" d="M46.19,226.54v-12.2a11.6,11.6,0,0,0-.14-1.81,4.3,4.3,0,0,0-.52-1.51,2.93,2.93,0,0,0-1-1,3.1,3.1,0,0,0-1.63-.38,3.51,3.51,0,0,0-3,1.38,5.5,5.5,0,0,0-1,3.41v12.16H31.46V192.38h7.41v14.5H39a7.06,7.06,0,0,1,2.44-2.42,7.35,7.35,0,0,1,4-1.06,8.29,8.29,0,0,1,3.86.81,7.41,7.41,0,0,1,2.53,2.1,8.29,8.29,0,0,1,1.4,3,13.4,13.4,0,0,1,.43,3.34v13.92Z"/><path class="cls-2" d="M67.29,196.85a3.83,3.83,0,0,1-.34,1.6,4.05,4.05,0,0,1-2.26,2.15,4.4,4.4,0,0,1-1.65.32,4.15,4.15,0,0,1-3-1.2,3.88,3.88,0,0,1-1.22-2.87,4,4,0,0,1,.32-1.56A3.69,3.69,0,0,1,60,194a4.87,4.87,0,0,1,1.36-.88,4.1,4.1,0,0,1,1.67-.34,4.42,4.42,0,0,1,1.65.32,4.05,4.05,0,0,1,2.26,2.15A3.84,3.84,0,0,1,67.29,196.85Zm-8,29.69V204h7.41v22.5Z"/><path class="cls-2" d="M87.39,226.54V214.24a10,10,0,0,0-.16-1.81,5,5,0,0,0-.52-1.51,2.72,2.72,0,0,0-1-1,3.24,3.24,0,0,0-1.65-.38,3.76,3.76,0,0,0-1.74.38,3.52,3.52,0,0,0-1.24,1.06,4.79,4.79,0,0,0-.75,1.56,6.7,6.7,0,0,0-.25,1.83v12.2H72.62V204H79.8v3.12h.09A7.42,7.42,0,0,1,81,205.73a6.39,6.39,0,0,1,1.54-1.2,9.63,9.63,0,0,1,1.92-.81,7.59,7.59,0,0,1,2.21-.32,8.32,8.32,0,0,1,3.84.81,7.35,7.35,0,0,1,2.55,2.1,8.29,8.29,0,0,1,1.4,3,13.4,13.4,0,0,1,.43,3.34v13.92Z"/><path class="cls-2" d="M124.63,226.54h-9.17l-7.37-10.8H108v10.8H100.5V192.38H108v20.79h.14l7.18-9.13h9l-8.68,10.17Z"/><path class="cls-3" d="M150.65,226a17.15,17.15,0,0,1-7.18,1.42,18.74,18.74,0,0,1-6.85-1.22,15.8,15.8,0,0,1-9.06-8.81,18.74,18.74,0,0,1,0-13.83,15.47,15.47,0,0,1,3.68-5.31,16.31,16.31,0,0,1,5.51-3.37,19.76,19.76,0,0,1,13.49,0,12.75,12.75,0,0,1,5.31,3.5l-5.24,5.24a6.48,6.48,0,0,0-2.85-2.21,9.45,9.45,0,0,0-3.62-.72,9.15,9.15,0,0,0-3.73.75,8.74,8.74,0,0,0-2.91,2.06,9.37,9.37,0,0,0-1.9,3.1,10.92,10.92,0,0,0-.68,3.91,11.24,11.24,0,0,0,.68,4,9.27,9.27,0,0,0,1.88,3.09,8.43,8.43,0,0,0,2.87,2,9.11,9.11,0,0,0,3.66.72,8.5,8.5,0,0,0,4-.9,7.79,7.79,0,0,0,2.76-2.35l5.38,5.06A15.24,15.24,0,0,1,150.65,226Z"/><path class="cls-3" d="M182.1,215.19a12.17,12.17,0,0,1-1,5,11.2,11.2,0,0,1-2.71,3.8,12.41,12.41,0,0,1-4,2.42,14,14,0,0,1-9.65,0,12.06,12.06,0,0,1-4-2.42,11.35,11.35,0,0,1-2.69-3.8,12.17,12.17,0,0,1-1-5,12,12,0,0,1,1-5,11.17,11.17,0,0,1,2.69-3.75,11.69,11.69,0,0,1,4-2.35,14.71,14.71,0,0,1,9.65,0,12,12,0,0,1,4,2.35,11,11,0,0,1,2.71,3.75A12,12,0,0,1,182.1,215.19Zm-7.14,0a6.42,6.42,0,0,0-.36-2.12,5.63,5.63,0,0,0-1-1.83,5.31,5.31,0,0,0-1.67-1.29,5.59,5.59,0,0,0-4.61,0,5,5,0,0,0-1.65,1.29,5.51,5.51,0,0,0-1,1.83,6.83,6.83,0,0,0,0,4.25,5.79,5.79,0,0,0,1,1.88,5,5,0,0,0,1.67,1.33,5.59,5.59,0,0,0,4.61,0,5,5,0,0,0,1.67-1.33,5.79,5.79,0,0,0,1-1.87A6.79,6.79,0,0,0,175,215.19Z"/><path class="cls-3" d="M203.84,226.54V223.6h-.09a7,7,0,0,1-3.1,2.64,10.09,10.09,0,0,1-4.27.93,10,10,0,0,1-4.52-1,10.37,10.37,0,0,1-3.37-2.64,11.6,11.6,0,0,1-2.1-3.82,14.18,14.18,0,0,1-.72-4.52,13.61,13.61,0,0,1,.75-4.5,11.71,11.71,0,0,1,2.12-3.77,9.9,9.9,0,0,1,7.75-3.52,8.58,8.58,0,0,1,4.2.95,9.33,9.33,0,0,1,2.67,2.08h.09V192.38h7.41v34.16Zm-.27-11.3a6.09,6.09,0,0,0-.38-2.12,6,6,0,0,0-1.08-1.85A5.41,5.41,0,0,0,200.4,210a5,5,0,0,0-2.26-.5,5.09,5.09,0,0,0-2.3.5,5.19,5.19,0,0,0-2.69,3.12,6.82,6.82,0,0,0-.34,2.12,7,7,0,0,0,.34,2.15,5.53,5.53,0,0,0,1,1.88,5.13,5.13,0,0,0,1.67,1.31,5.08,5.08,0,0,0,2.3.5,5,5,0,0,0,2.26-.5,5.41,5.41,0,0,0,1.69-1.31,6,6,0,0,0,1.08-1.85A6.08,6.08,0,0,0,203.57,215.24Z"/><path class="cls-3" d="M238.86,215.55v.9a8,8,0,0,1,0,.86H222.5a3.92,3.92,0,0,0,.56,1.72,4.87,4.87,0,0,0,1.22,1.33,6,6,0,0,0,3.59,1.2,6.23,6.23,0,0,0,3-.66,5.88,5.88,0,0,0,2-1.69l5.15,3.25a10.43,10.43,0,0,1-4.18,3.55,13.84,13.84,0,0,1-6,1.24,14.41,14.41,0,0,1-4.79-.79,11.62,11.62,0,0,1-4-2.3,10.68,10.68,0,0,1-2.67-3.73,12.49,12.49,0,0,1-1-5.06,12.66,12.66,0,0,1,.95-5,11.28,11.28,0,0,1,2.58-3.79,11.48,11.48,0,0,1,3.84-2.42,13.15,13.15,0,0,1,4.79-.86,12.14,12.14,0,0,1,4.56.84,9.94,9.94,0,0,1,3.57,2.42A11.17,11.17,0,0,1,238,210.4,14.8,14.8,0,0,1,238.86,215.55ZM232,212.71a4.44,4.44,0,0,0-1.11-3,4.18,4.18,0,0,0-3.32-1.26,5.6,5.6,0,0,0-2,.34,5.16,5.16,0,0,0-1.58.93,4.57,4.57,0,0,0-1.08,1.38,4,4,0,0,0-.45,1.65Z"/></svg>